<svg width="255" height="56" viewBox="0 0 255 56" fill="none" xmlns="http://www.w3.org/2000/svg">
<path d="M72.992 28.352C72.992 27.1573 73.1947 26.1333 73.6 25.28C74.016 24.416 74.608 23.7493 75.376 23.28C76.1547 22.8107 77.088 22.576 78.176 22.576C79.232 22.576 80.1493 22.8107 80.928 23.28C81.7067 23.7493 82.304 24.416 82.72 25.28C83.1467 26.1333 83.36 27.152 83.36 28.336C83.36 29.5307 83.1467 30.56 82.72 31.424C82.2933 32.288 81.6907 32.96 80.912 33.44C80.144 33.9093 79.232 34.144 78.176 34.144C77.088 34.144 76.16 33.9093 75.392 33.44C74.624 32.96 74.032 32.288 73.616 31.424C73.2 30.56 72.992 29.536 72.992 28.352ZM74.384 28.352C74.384 29.8027 74.704 30.9387 75.344 31.76C75.984 32.5707 76.928 32.976 78.176 32.976C79.3707 32.976 80.2987 32.5707 80.96 31.76C81.632 30.9387 81.968 29.8027 81.968 28.352C81.968 26.8907 81.6373 25.76 80.976 24.96C80.3147 24.1493 79.3813 23.744 78.176 23.744C76.928 23.744 75.984 24.1493 75.344 24.96C74.704 25.76 74.384 26.8907 74.384 28.352ZM88.1914 34L84.7514 25.968H86.1594L89.0394 33.04H88.6074L91.5194 25.968H92.8634L89.4234 34H88.1914ZM97.982 34.144C96.7233 34.144 95.7313 33.7813 95.006 33.056C94.2807 32.32 93.918 31.3013 93.918 30C93.918 29.1573 94.078 28.4267 94.398 27.808C94.718 27.1787 95.166 26.6933 95.742 26.352C96.318 26 96.9793 25.824 97.726 25.824C98.462 25.824 99.0807 25.9787 99.582 26.288C100.083 26.5973 100.467 27.04 100.734 27.616C101.001 28.1813 101.134 28.8533 101.134 29.632V30.112H94.91V29.296H100.286L100.014 29.504C100.014 28.6507 99.822 27.984 99.438 27.504C99.054 27.024 98.4833 26.784 97.726 26.784C96.926 26.784 96.302 27.0667 95.854 27.632C95.406 28.1867 95.182 28.9387 95.182 29.888V30.032C95.182 31.0347 95.4273 31.7973 95.918 32.32C96.4193 32.832 97.118 33.088 98.014 33.088C98.494 33.088 98.942 33.0187 99.358 32.88C99.7847 32.7307 100.19 32.4907 100.574 32.16L101.022 33.072C100.67 33.4133 100.222 33.68 99.678 33.872C99.1447 34.0533 98.5793 34.144 97.982 34.144ZM103.285 34V27.904C103.285 27.584 103.274 27.2587 103.253 26.928C103.242 26.5973 103.221 26.2773 103.189 25.968H104.437L104.597 27.92L104.373 27.936C104.48 27.456 104.666 27.0613 104.933 26.752C105.2 26.4427 105.514 26.2133 105.877 26.064C106.24 25.904 106.618 25.824 107.013 25.824C107.173 25.824 107.312 25.8293 107.429 25.84C107.557 25.8507 107.674 25.8773 107.781 25.92L107.765 27.072C107.605 27.0187 107.456 26.9867 107.317 26.976C107.189 26.9547 107.04 26.944 106.869 26.944C106.4 26.944 105.989 27.056 105.637 27.28C105.296 27.504 105.034 27.792 104.853 28.144C104.682 28.496 104.597 28.8693 104.597 29.264V34H103.285ZM112.182 34L108.742 25.968H110.15L113.03 33.04H112.598L115.51 25.968H116.854L113.414 34H112.182ZM118.514 34V25.968H119.81V34H118.514ZM118.354 24.144V22.688H119.954V24.144H118.354ZM126.095 34.144C124.836 34.144 123.844 33.7813 123.119 33.056C122.393 32.32 122.031 31.3013 122.031 30C122.031 29.1573 122.191 28.4267 122.511 27.808C122.831 27.1787 123.279 26.6933 123.855 26.352C124.431 26 125.092 25.824 125.839 25.824C126.575 25.824 127.193 25.9787 127.695 26.288C128.196 26.5973 128.58 27.04 128.847 27.616C129.113 28.1813 129.247 28.8533 129.247 29.632V30.112H123.023V29.296H128.399L128.127 29.504C128.127 28.6507 127.935 27.984 127.551 27.504C127.167 27.024 126.596 26.784 125.839 26.784C125.039 26.784 124.415 27.0667 123.967 27.632C123.519 28.1867 123.295 28.9387 123.295 29.888V30.032C123.295 31.0347 123.54 31.7973 124.031 32.32C124.532 32.832 125.231 33.088 126.127 33.088C126.607 33.088 127.055 33.0187 127.471 32.88C127.897 32.7307 128.303 32.4907 128.687 32.16L129.135 33.072C128.783 33.4133 128.335 33.68 127.791 33.872C127.257 34.0533 126.692 34.144 126.095 34.144ZM133.48 34L130.504 25.968H131.88L134.36 33.04H133.944L136.504 25.968H137.624L140.136 33.04H139.736L142.232 25.968H143.544L140.552 34H139.304L136.712 26.816H137.352L134.744 34H133.48Z" fill="#A4A6B3"/>
<path opacity="0.4" d="M47.5232 28.9412H40.5441L45.1921 33.5891C45.3697 33.7667 45.6621 33.7812 45.8447 33.6091C46.9829 32.5367 47.7659 31.0912 47.9956 29.4662C48.035 29.1879 47.8041 28.9412 47.5232 28.9412V28.9412ZM47.0576 27.0353C46.8153 23.5218 44.0076 20.7141 40.4941 20.4718C40.2259 20.4532 40 20.6794 40 20.9482V27.5294H46.5815C46.8503 27.5294 47.0762 27.3035 47.0576 27.0353ZM38.5882 28.9412V21.9621C38.5882 21.6812 38.3415 21.4503 38.0635 21.4897C34.5585 21.985 31.8794 25.0471 32.0041 28.7167C32.1324 32.4856 35.3774 35.5761 39.1479 35.5288C40.6303 35.5103 42 35.0326 43.1262 34.2338C43.3585 34.0691 43.3738 33.727 43.1724 33.5256L38.5882 28.9412Z" fill="#9FA2B4"/>
</svg>
