<svg width="255" height="56" viewBox="0 0 255 56" fill="none" xmlns="http://www.w3.org/2000/svg">
<path d="M72.288 34L77.264 22.72H78.416L83.472 34H82.096L80.688 30.784L81.28 31.12H74.384L75.024 30.784L73.648 34H72.288ZM77.824 24.24L75.232 30.32L74.848 30.032H80.8L80.512 30.32L77.856 24.24H77.824ZM85.1976 34V27.904C85.1976 27.584 85.187 27.2587 85.1656 26.928C85.155 26.5973 85.1336 26.2773 85.1016 25.968H86.3496L86.5096 27.92L86.2856 27.936C86.3923 27.456 86.579 27.0613 86.8456 26.752C87.1123 26.4427 87.427 26.2133 87.7896 26.064C88.1523 25.904 88.531 25.824 88.9256 25.824C89.0856 25.824 89.2243 25.8293 89.3416 25.84C89.4696 25.8507 89.587 25.8773 89.6936 25.92L89.6776 27.072C89.5176 27.0187 89.3683 26.9867 89.2296 26.976C89.1016 26.9547 88.9523 26.944 88.7816 26.944C88.3123 26.944 87.9016 27.056 87.5496 27.28C87.2083 27.504 86.947 27.792 86.7656 28.144C86.595 28.496 86.5096 28.8693 86.5096 29.264V34H85.1976ZM94.512 34.144C93.7227 34.144 93.12 33.92 92.704 33.472C92.288 33.0133 92.08 32.3253 92.08 31.408V26.976H90.512V25.968H92.08V23.776L93.376 23.408V25.968H95.68V26.976H93.376V31.264C93.376 31.904 93.4827 32.3627 93.696 32.64C93.92 32.9067 94.2507 33.04 94.688 33.04C94.8907 33.04 95.072 33.024 95.232 32.992C95.392 32.9493 95.536 32.9013 95.664 32.848V33.936C95.5147 34 95.3333 34.048 95.12 34.08C94.9173 34.1227 94.7147 34.144 94.512 34.144ZM97.4578 34V25.968H98.7538V34H97.4578ZM97.2978 24.144V22.688H98.8978V24.144H97.2978ZM104.846 34.144C104.057 34.144 103.369 33.9733 102.782 33.632C102.206 33.2907 101.758 32.8053 101.438 32.176C101.129 31.5467 100.974 30.8 100.974 29.936C100.974 29.0613 101.134 28.32 101.454 27.712C101.774 27.0933 102.222 26.624 102.798 26.304C103.385 25.984 104.068 25.824 104.846 25.824C105.358 25.824 105.854 25.9147 106.334 26.096C106.825 26.2773 107.23 26.5333 107.55 26.864L107.086 27.792C106.766 27.4827 106.414 27.2533 106.03 27.104C105.657 26.9547 105.289 26.88 104.926 26.88C104.094 26.88 103.449 27.1413 102.99 27.664C102.532 28.1867 102.302 28.9493 102.302 29.952C102.302 30.944 102.532 31.712 102.99 32.256C103.449 32.8 104.094 33.072 104.926 33.072C105.278 33.072 105.641 33.0027 106.014 32.864C106.398 32.7253 106.756 32.496 107.086 32.176L107.55 33.088C107.22 33.4293 106.809 33.6907 106.318 33.872C105.828 34.0533 105.337 34.144 104.846 34.144ZM109.592 34V22.224H110.888V34H109.592ZM117.173 34.144C115.914 34.144 114.922 33.7813 114.197 33.056C113.471 32.32 113.109 31.3013 113.109 30C113.109 29.1573 113.269 28.4267 113.589 27.808C113.909 27.1787 114.357 26.6933 114.933 26.352C115.509 26 116.17 25.824 116.917 25.824C117.653 25.824 118.271 25.9787 118.773 26.288C119.274 26.5973 119.658 27.04 119.925 27.616C120.191 28.1813 120.325 28.8533 120.325 29.632V30.112H114.101V29.296H119.477L119.205 29.504C119.205 28.6507 119.013 27.984 118.629 27.504C118.245 27.024 117.674 26.784 116.917 26.784C116.117 26.784 115.493 27.0667 115.045 27.632C114.597 28.1867 114.373 28.9387 114.373 29.888V30.032C114.373 31.0347 114.618 31.7973 115.109 32.32C115.61 32.832 116.309 33.088 117.205 33.088C117.685 33.088 118.133 33.0187 118.549 32.88C118.975 32.7307 119.381 32.4907 119.765 32.16L120.213 33.072C119.861 33.4133 119.413 33.68 118.869 33.872C118.335 34.0533 117.77 34.144 117.173 34.144ZM125.18 34.144C124.54 34.144 123.942 34.0587 123.388 33.888C122.833 33.7067 122.374 33.456 122.012 33.136L122.46 32.224C122.854 32.5333 123.281 32.7627 123.74 32.912C124.209 33.0613 124.694 33.136 125.196 33.136C125.836 33.136 126.316 33.024 126.636 32.8C126.966 32.5653 127.132 32.2453 127.132 31.84C127.132 31.5307 127.025 31.2853 126.812 31.104C126.609 30.912 126.273 30.7627 125.804 30.656L124.316 30.352C123.633 30.2027 123.121 29.952 122.78 29.6C122.438 29.2373 122.268 28.7787 122.268 28.224C122.268 27.7547 122.39 27.344 122.636 26.992C122.881 26.6293 123.238 26.3467 123.708 26.144C124.177 25.9307 124.726 25.824 125.356 25.824C125.942 25.824 126.481 25.9147 126.972 26.096C127.473 26.2667 127.889 26.5173 128.22 26.848L127.756 27.744C127.436 27.4347 127.068 27.2053 126.652 27.056C126.246 26.896 125.825 26.816 125.388 26.816C124.758 26.816 124.284 26.944 123.964 27.2C123.654 27.4453 123.5 27.7707 123.5 28.176C123.5 28.4853 123.596 28.7413 123.788 28.944C123.99 29.136 124.3 29.28 124.716 29.376L126.204 29.68C126.929 29.84 127.468 30.0907 127.82 30.432C128.182 30.7627 128.364 31.2107 128.364 31.776C128.364 32.256 128.23 32.6773 127.964 33.04C127.697 33.392 127.324 33.664 126.844 33.856C126.374 34.048 125.82 34.144 125.18 34.144Z" fill="#A4A6B3"/>
<path opacity="0.4" d="M47 31.25V20.75C47 20.3344 46.6656 20 46.25 20H36C34.3438 20 33 21.3438 33 23V33C33 34.6562 34.3438 36 36 36H46.25C46.6656 36 47 35.6656 47 35.25V34.75C47 34.5156 46.8906 34.3031 46.7219 34.1656C46.5906 33.6844 46.5906 32.3125 46.7219 31.8313C46.8906 31.6969 47 31.4844 47 31.25ZM37 24.1875C37 24.0844 37.0844 24 37.1875 24H43.8125C43.9156 24 44 24.0844 44 24.1875V24.8125C44 24.9156 43.9156 25 43.8125 25H37.1875C37.0844 25 37 24.9156 37 24.8125V24.1875ZM37 26.1875C37 26.0844 37.0844 26 37.1875 26H43.8125C43.9156 26 44 26.0844 44 26.1875V26.8125C44 26.9156 43.9156 27 43.8125 27H37.1875C37.0844 27 37 26.9156 37 26.8125V26.1875ZM44.9187 34H36C35.4469 34 35 33.5531 35 33C35 32.45 35.45 32 36 32H44.9187C44.8594 32.5344 44.8594 33.4656 44.9187 34Z" fill="#9FA2B4"/>
</svg>
