<svg width="54" height="24" viewBox="0 0 54 24" fill="none" xmlns="http://www.w3.org/2000/svg">
<rect width="54" height="24" rx="12" fill="#F12B2C"/>
<path d="M19.7749 8.168V16H18.3669V12.601H14.3519V16H12.9549V8.168H14.3519V11.446H18.3669V8.168H19.7749ZM21.9735 8.168H23.3925V16H21.9735V8.168ZM32.1227 11.765V15.527C31.7634 15.703 31.3307 15.8423 30.8247 15.945C30.3187 16.0477 29.8017 16.099 29.2737 16.099C28.467 16.099 27.7667 15.9377 27.1727 15.615C26.5787 15.2923 26.124 14.8303 25.8087 14.229C25.4934 13.6277 25.3357 12.909 25.3357 12.073C25.3357 11.2517 25.4934 10.5403 25.8087 9.939C26.124 9.33767 26.5714 8.87567 27.1507 8.553C27.7374 8.23033 28.423 8.069 29.2077 8.069C29.7577 8.069 30.271 8.14967 30.7477 8.311C31.2317 8.47233 31.635 8.69967 31.9577 8.993L31.4737 10.027C31.107 9.741 30.7477 9.53567 30.3957 9.411C30.0437 9.28633 29.6587 9.224 29.2407 9.224C28.434 9.224 27.8217 9.466 27.4037 9.95C26.993 10.434 26.7877 11.1417 26.7877 12.073C26.7877 13.0337 27.0004 13.7597 27.4257 14.251C27.851 14.735 28.4854 14.977 29.3287 14.977C29.842 14.977 30.348 14.9073 30.8467 14.768V12.788H29.1527V11.765H32.1227ZM41.0405 8.168V16H39.6325V12.601H35.6175V16H34.2205V8.168H35.6175V11.446H39.6325V8.168H41.0405Z" fill="white"/>
</svg>
