<svg width="255" height="56" viewBox="0 0 255 56" fill="none" xmlns="http://www.w3.org/2000/svg">
<path opacity="0.08" d="M0 0H255V56H0V0Z" fill="#9FA2B4"/>
<rect width="3" height="56" fill="#DDE2FF"/>
<path d="M77.856 34.144C76.3307 34.144 75.1947 33.7547 74.448 32.976C73.712 32.1973 73.344 31.0507 73.344 29.536V22.72H74.656V29.472C74.656 30.6347 74.912 31.5093 75.424 32.096C75.936 32.6827 76.7467 32.976 77.856 32.976C78.9013 32.976 79.696 32.6827 80.24 32.096C80.784 31.5093 81.056 30.6347 81.056 29.472V22.72H82.368V29.536C82.368 31.0507 81.984 32.1973 81.216 32.976C80.4587 33.7547 79.3387 34.144 77.856 34.144ZM87.8235 34.144C87.1835 34.144 86.5862 34.0587 86.0315 33.888C85.4768 33.7067 85.0182 33.456 84.6555 33.136L85.1035 32.224C85.4982 32.5333 85.9248 32.7627 86.3835 32.912C86.8528 33.0613 87.3382 33.136 87.8395 33.136C88.4795 33.136 88.9595 33.024 89.2795 32.8C89.6102 32.5653 89.7755 32.2453 89.7755 31.84C89.7755 31.5307 89.6688 31.2853 89.4555 31.104C89.2528 30.912 88.9168 30.7627 88.4475 30.656L86.9595 30.352C86.2768 30.2027 85.7648 29.952 85.4235 29.6C85.0822 29.2373 84.9115 28.7787 84.9115 28.224C84.9115 27.7547 85.0342 27.344 85.2795 26.992C85.5248 26.6293 85.8822 26.3467 86.3515 26.144C86.8208 25.9307 87.3702 25.824 87.9995 25.824C88.5862 25.824 89.1248 25.9147 89.6155 26.096C90.1168 26.2667 90.5328 26.5173 90.8635 26.848L90.3995 27.744C90.0795 27.4347 89.7115 27.2053 89.2955 27.056C88.8902 26.896 88.4688 26.816 88.0315 26.816C87.4022 26.816 86.9275 26.944 86.6075 27.2C86.2982 27.4453 86.1435 27.7707 86.1435 28.176C86.1435 28.4853 86.2395 28.7413 86.4315 28.944C86.6342 29.136 86.9435 29.28 87.3595 29.376L88.8475 29.68C89.5728 29.84 90.1115 30.0907 90.4635 30.432C90.8262 30.7627 91.0075 31.2107 91.0075 31.776C91.0075 32.256 90.8742 32.6773 90.6075 33.04C90.3408 33.392 89.9675 33.664 89.4875 33.856C89.0182 34.048 88.4635 34.144 87.8235 34.144ZM96.857 34.144C95.5983 34.144 94.6063 33.7813 93.881 33.056C93.1557 32.32 92.793 31.3013 92.793 30C92.793 29.1573 92.953 28.4267 93.273 27.808C93.593 27.1787 94.041 26.6933 94.617 26.352C95.193 26 95.8543 25.824 96.601 25.824C97.337 25.824 97.9557 25.9787 98.457 26.288C98.9583 26.5973 99.3423 27.04 99.609 27.616C99.8757 28.1813 100.009 28.8533 100.009 29.632V30.112H93.785V29.296H99.161L98.889 29.504C98.889 28.6507 98.697 27.984 98.313 27.504C97.929 27.024 97.3583 26.784 96.601 26.784C95.801 26.784 95.177 27.0667 94.729 27.632C94.281 28.1867 94.057 28.9387 94.057 29.888V30.032C94.057 31.0347 94.3023 31.7973 94.793 32.32C95.2943 32.832 95.993 33.088 96.889 33.088C97.369 33.088 97.817 33.0187 98.233 32.88C98.6597 32.7307 99.065 32.4907 99.449 32.16L99.897 33.072C99.545 33.4133 99.097 33.68 98.553 33.872C98.0197 34.0533 97.4543 34.144 96.857 34.144ZM102.16 34V27.904C102.16 27.584 102.149 27.2587 102.128 26.928C102.117 26.5973 102.096 26.2773 102.064 25.968H103.312L103.472 27.92L103.248 27.936C103.355 27.456 103.541 27.0613 103.808 26.752C104.075 26.4427 104.389 26.2133 104.752 26.064C105.115 25.904 105.493 25.824 105.888 25.824C106.048 25.824 106.187 25.8293 106.304 25.84C106.432 25.8507 106.549 25.8773 106.656 25.92L106.64 27.072C106.48 27.0187 106.331 26.9867 106.192 26.976C106.064 26.9547 105.915 26.944 105.744 26.944C105.275 26.944 104.864 27.056 104.512 27.28C104.171 27.504 103.909 27.792 103.728 28.144C103.557 28.496 103.472 28.8693 103.472 29.264V34H102.16ZM110.798 34.144C110.158 34.144 109.561 34.0587 109.006 33.888C108.452 33.7067 107.993 33.456 107.63 33.136L108.078 32.224C108.473 32.5333 108.9 32.7627 109.358 32.912C109.828 33.0613 110.313 33.136 110.814 33.136C111.454 33.136 111.934 33.024 112.254 32.8C112.585 32.5653 112.75 32.2453 112.75 31.84C112.75 31.5307 112.644 31.2853 112.43 31.104C112.228 30.912 111.892 30.7627 111.422 30.656L109.934 30.352C109.252 30.2027 108.74 29.952 108.398 29.6C108.057 29.2373 107.886 28.7787 107.886 28.224C107.886 27.7547 108.009 27.344 108.254 26.992C108.5 26.6293 108.857 26.3467 109.326 26.144C109.796 25.9307 110.345 25.824 110.974 25.824C111.561 25.824 112.1 25.9147 112.59 26.096C113.092 26.2667 113.508 26.5173 113.838 26.848L113.374 27.744C113.054 27.4347 112.686 27.2053 112.27 27.056C111.865 26.896 111.444 26.816 111.006 26.816C110.377 26.816 109.902 26.944 109.582 27.2C109.273 27.4453 109.118 27.7707 109.118 28.176C109.118 28.4853 109.214 28.7413 109.406 28.944C109.609 29.136 109.918 29.28 110.334 29.376L111.822 29.68C112.548 29.84 113.086 30.0907 113.438 30.432C113.801 30.7627 113.982 31.2107 113.982 31.776C113.982 32.256 113.849 32.6773 113.582 33.04C113.316 33.392 112.942 33.664 112.462 33.856C111.993 34.048 111.438 34.144 110.798 34.144Z" fill="#DDE2FF"/>
<path d="M35.5556 25.3333H44.4444V30.6666H35.5556V25.3333ZM46.6667 28C46.6667 28.7363 47.2636 29.3333 48 29.3333V32C48 32.7363 47.4031 33.3333 46.6667 33.3333H33.3333C32.5969 33.3333 32 32.7363 32 32V29.3333C32.7364 29.3333 33.3333 28.7363 33.3333 28C33.3333 27.2636 32.7364 26.6666 32 26.6666V24C32 23.2636 32.5969 22.6666 33.3333 22.6666H46.6667C47.4031 22.6666 48 23.2636 48 24V26.6666C47.2636 26.6666 46.6667 27.2636 46.6667 28ZM45.3333 25.1111C45.3333 24.7429 45.0349 24.4444 44.6667 24.4444H35.3333C34.9651 24.4444 34.6667 24.7429 34.6667 25.1111V30.8888C34.6667 31.257 34.9651 31.5555 35.3333 31.5555H44.6667C45.0349 31.5555 45.3333 31.257 45.3333 30.8888V25.1111Z" fill="#DDE2FF"/>
</svg>
