<svg width="255" height="56" viewBox="0 0 255 56" fill="none" xmlns="http://www.w3.org/2000/svg">
<path d="M73.408 34V22.72H74.736V34H73.408ZM80.6446 34.144C79.9406 34.144 79.322 33.9787 78.7886 33.648C78.2553 33.3067 77.8393 32.8267 77.5406 32.208C77.2526 31.5893 77.1086 30.848 77.1086 29.984C77.1086 29.1093 77.2526 28.3627 77.5406 27.744C77.8393 27.1253 78.2553 26.6507 78.7886 26.32C79.322 25.9893 79.9406 25.824 80.6446 25.824C81.37 25.824 81.994 26.0053 82.5166 26.368C83.05 26.7307 83.4073 27.2213 83.5886 27.84H83.3966V22.224H84.6926V34H83.4126V32.08H83.5886C83.418 32.72 83.066 33.2267 82.5326 33.6C81.9993 33.9627 81.37 34.144 80.6446 34.144ZM80.9166 33.088C81.674 33.088 82.282 32.8267 82.7406 32.304C83.1993 31.7707 83.4286 30.9973 83.4286 29.984C83.4286 28.96 83.1993 28.1867 82.7406 27.664C82.282 27.1307 81.674 26.864 80.9166 26.864C80.1593 26.864 79.5513 27.1307 79.0926 27.664C78.6446 28.1867 78.4206 28.96 78.4206 29.984C78.4206 30.9973 78.6446 31.7707 79.0926 32.304C79.5513 32.8267 80.1593 33.088 80.9166 33.088ZM90.9664 34.144C89.7077 34.144 88.7157 33.7813 87.9904 33.056C87.265 32.32 86.9024 31.3013 86.9024 30C86.9024 29.1573 87.0624 28.4267 87.3824 27.808C87.7024 27.1787 88.1504 26.6933 88.7264 26.352C89.3024 26 89.9637 25.824 90.7104 25.824C91.4464 25.824 92.065 25.9787 92.5664 26.288C93.0677 26.5973 93.4517 27.04 93.7184 27.616C93.985 28.1813 94.1184 28.8533 94.1184 29.632V30.112H87.8944V29.296H93.2704L92.9984 29.504C92.9984 28.6507 92.8064 27.984 92.4224 27.504C92.0384 27.024 91.4677 26.784 90.7104 26.784C89.9104 26.784 89.2864 27.0667 88.8384 27.632C88.3904 28.1867 88.1664 28.9387 88.1664 29.888V30.032C88.1664 31.0347 88.4117 31.7973 88.9024 32.32C89.4037 32.832 90.1024 33.088 90.9984 33.088C91.4784 33.088 91.9264 33.0187 92.3424 32.88C92.769 32.7307 93.1744 32.4907 93.5584 32.16L94.0064 33.072C93.6544 33.4133 93.2064 33.68 92.6624 33.872C92.129 34.0533 91.5637 34.144 90.9664 34.144ZM99.3575 34.144C98.6428 34.144 98.0188 33.9787 97.4855 33.648C96.9522 33.3067 96.5362 32.8267 96.2375 32.208C95.9495 31.5893 95.8055 30.848 95.8055 29.984C95.8055 29.1093 95.9495 28.3627 96.2375 27.744C96.5362 27.1253 96.9522 26.6507 97.4855 26.32C98.0188 25.9893 98.6428 25.824 99.3575 25.824C100.083 25.824 100.707 26.0107 101.23 26.384C101.763 26.7467 102.115 27.2427 102.286 27.872H102.094L102.27 25.968H103.518C103.486 26.2773 103.454 26.592 103.422 26.912C103.4 27.2213 103.39 27.5253 103.39 27.824V34H102.094V32.112H102.27C102.099 32.7413 101.747 33.2373 101.214 33.6C100.68 33.9627 100.062 34.144 99.3575 34.144ZM99.6135 33.088C100.382 33.088 100.99 32.8267 101.438 32.304C101.886 31.7707 102.11 30.9973 102.11 29.984C102.11 28.96 101.886 28.1867 101.438 27.664C100.99 27.1307 100.382 26.864 99.6135 26.864C98.8562 26.864 98.2482 27.1307 97.7895 27.664C97.3415 28.1867 97.1175 28.96 97.1175 29.984C97.1175 30.9973 97.3415 31.7707 97.7895 32.304C98.2482 32.8267 98.8562 33.088 99.6135 33.088ZM108.767 34.144C108.127 34.144 107.53 34.0587 106.975 33.888C106.421 33.7067 105.962 33.456 105.599 33.136L106.047 32.224C106.442 32.5333 106.869 32.7627 107.327 32.912C107.797 33.0613 108.282 33.136 108.783 33.136C109.423 33.136 109.903 33.024 110.223 32.8C110.554 32.5653 110.719 32.2453 110.719 31.84C110.719 31.5307 110.613 31.2853 110.399 31.104C110.197 30.912 109.861 30.7627 109.391 30.656L107.903 30.352C107.221 30.2027 106.709 29.952 106.367 29.6C106.026 29.2373 105.855 28.7787 105.855 28.224C105.855 27.7547 105.978 27.344 106.223 26.992C106.469 26.6293 106.826 26.3467 107.295 26.144C107.765 25.9307 108.314 25.824 108.943 25.824C109.53 25.824 110.069 25.9147 110.559 26.096C111.061 26.2667 111.477 26.5173 111.807 26.848L111.343 27.744C111.023 27.4347 110.655 27.2053 110.239 27.056C109.834 26.896 109.413 26.816 108.975 26.816C108.346 26.816 107.871 26.944 107.551 27.2C107.242 27.4453 107.087 27.7707 107.087 28.176C107.087 28.4853 107.183 28.7413 107.375 28.944C107.578 29.136 107.887 29.28 108.303 29.376L109.791 29.68C110.517 29.84 111.055 30.0907 111.407 30.432C111.77 30.7627 111.951 31.2107 111.951 31.776C111.951 32.256 111.818 32.6773 111.551 33.04C111.285 33.392 110.911 33.664 110.431 33.856C109.962 34.048 109.407 34.144 108.767 34.144Z" fill="#A4A6B3"/>
<g clip-path="url(#clip0_597_232)">
<path opacity="0.4" d="M37.5019 34.1985C37.5022 34.395 37.5603 34.5875 37.6694 34.7513L38.2034 35.5541C38.2947 35.6913 38.4184 35.8039 38.5637 35.8817C38.7089 35.9596 38.8711 36.0003 39.0359 36.0003H40.9644C41.1292 36.0003 41.2914 35.9596 41.4367 35.8817C41.5819 35.8039 41.7056 35.6913 41.7969 35.5541L42.3309 34.7513C42.44 34.5875 42.4982 34.3952 42.4984 34.1985L42.4997 33H37.5003L37.5019 34.1985ZM34.5 25.5C34.5 26.8866 35.0141 28.1516 35.8613 29.1182C36.3775 29.7072 37.185 30.9378 37.4928 31.976C37.4941 31.9841 37.495 31.9922 37.4962 32.0003H42.5037C42.505 31.9922 42.5059 31.9844 42.5072 31.976C42.815 30.9378 43.6225 29.7072 44.1388 29.1182C44.9859 28.1516 45.5 26.8866 45.5 25.5C45.5 22.4566 43.0284 19.9907 39.9828 20C36.795 20.0097 34.5 22.5928 34.5 25.5ZM40 23C38.6216 23 37.5 24.1216 37.5 25.5C37.5 25.7763 37.2762 26 37 26C36.7238 26 36.5 25.7763 36.5 25.5C36.5 23.57 38.07 22 40 22C40.2762 22 40.5 22.2238 40.5 22.5C40.5 22.7763 40.2762 23 40 23Z" fill="#9FA2B4"/>
</g>
<defs>
<clipPath id="clip0_597_232">
<rect width="16" height="16" fill="white" transform="translate(32 20)"/>
</clipPath>
</defs>
</svg>
