<svg width="255" height="56" viewBox="0 0 255 56" fill="none" xmlns="http://www.w3.org/2000/svg">
<path d="M78.32 34.144C77.1893 34.144 76.2293 33.9093 75.44 33.44C74.6507 32.9707 74.0427 32.304 73.616 31.44C73.2 30.576 72.992 29.5467 72.992 28.352C72.992 27.1573 73.2 26.1333 73.616 25.28C74.0427 24.416 74.6507 23.7493 75.44 23.28C76.2293 22.8107 77.1893 22.576 78.32 22.576C79.12 22.576 79.8347 22.6987 80.464 22.944C81.0933 23.1893 81.6427 23.5467 82.112 24.016L81.616 25.072C81.104 24.624 80.5973 24.2987 80.096 24.096C79.5947 23.8827 79.008 23.776 78.336 23.776C77.0453 23.776 76.064 24.176 75.392 24.976C74.72 25.776 74.384 26.9013 74.384 28.352C74.384 29.8027 74.72 30.9333 75.392 31.744C76.064 32.544 77.0453 32.944 78.336 32.944C79.008 32.944 79.5947 32.8427 80.096 32.64C80.5973 32.4267 81.104 32.0907 81.616 31.632L82.112 32.704C81.6427 33.1627 81.0933 33.52 80.464 33.776C79.8347 34.0213 79.12 34.144 78.32 34.144ZM87.135 34.144C86.367 34.144 85.695 33.9787 85.119 33.648C84.5537 33.3067 84.1163 32.8267 83.807 32.208C83.4977 31.5787 83.343 30.8373 83.343 29.984C83.343 29.12 83.4977 28.3787 83.807 27.76C84.1163 27.1413 84.5537 26.6667 85.119 26.336C85.695 25.9947 86.367 25.824 87.135 25.824C87.9137 25.824 88.5857 25.9947 89.151 26.336C89.727 26.6667 90.1697 27.1413 90.479 27.76C90.799 28.3787 90.959 29.12 90.959 29.984C90.959 30.8373 90.799 31.5787 90.479 32.208C90.1697 32.8267 89.727 33.3067 89.151 33.648C88.5857 33.9787 87.9137 34.144 87.135 34.144ZM87.135 33.088C87.903 33.088 88.511 32.8267 88.959 32.304C89.407 31.7707 89.631 30.9973 89.631 29.984C89.631 28.96 89.4017 28.1867 88.943 27.664C88.495 27.1307 87.8923 26.864 87.135 26.864C86.3777 26.864 85.775 27.1307 85.327 27.664C84.879 28.1867 84.655 28.96 84.655 29.984C84.655 30.9973 84.879 31.7707 85.327 32.304C85.775 32.8267 86.3777 33.088 87.135 33.088ZM93.1796 34V27.824C93.1796 27.5253 93.1636 27.2213 93.1316 26.912C93.1103 26.592 93.0836 26.2773 93.0516 25.968H94.2996L94.4596 27.728H94.2676C94.5023 27.1093 94.8756 26.64 95.3876 26.32C95.9103 25.9893 96.513 25.824 97.1956 25.824C98.145 25.824 98.8596 26.08 99.3396 26.592C99.8303 27.0933 100.076 27.888 100.076 28.976V34H98.7796V29.056C98.7796 28.2987 98.625 27.7493 98.3156 27.408C98.017 27.056 97.5476 26.88 96.9076 26.88C96.161 26.88 95.569 27.1093 95.1316 27.568C94.6943 28.0267 94.4756 28.64 94.4756 29.408V34H93.1796ZM105.603 34.144C104.813 34.144 104.211 33.92 103.795 33.472C103.379 33.0133 103.171 32.3253 103.171 31.408V26.976H101.603V25.968H103.171V23.776L104.467 23.408V25.968H106.771V26.976H104.467V31.264C104.467 31.904 104.573 32.3627 104.787 32.64C105.011 32.9067 105.341 33.04 105.779 33.04C105.981 33.04 106.163 33.024 106.323 32.992C106.483 32.9493 106.627 32.9013 106.755 32.848V33.936C106.605 34 106.424 34.048 106.211 34.08C106.008 34.1227 105.805 34.144 105.603 34.144ZM111.604 34.144C110.89 34.144 110.266 33.9787 109.732 33.648C109.199 33.3067 108.783 32.8267 108.484 32.208C108.196 31.5893 108.052 30.848 108.052 29.984C108.052 29.1093 108.196 28.3627 108.484 27.744C108.783 27.1253 109.199 26.6507 109.732 26.32C110.266 25.9893 110.89 25.824 111.604 25.824C112.33 25.824 112.954 26.0107 113.476 26.384C114.01 26.7467 114.362 27.2427 114.532 27.872H114.34L114.516 25.968H115.764C115.732 26.2773 115.7 26.592 115.668 26.912C115.647 27.2213 115.636 27.5253 115.636 27.824V34H114.34V32.112H114.516C114.346 32.7413 113.994 33.2373 113.46 33.6C112.927 33.9627 112.308 34.144 111.604 34.144ZM111.86 33.088C112.628 33.088 113.236 32.8267 113.684 32.304C114.132 31.7707 114.356 30.9973 114.356 29.984C114.356 28.96 114.132 28.1867 113.684 27.664C113.236 27.1307 112.628 26.864 111.86 26.864C111.103 26.864 110.495 27.1307 110.036 27.664C109.588 28.1867 109.364 28.96 109.364 29.984C109.364 30.9973 109.588 31.7707 110.036 32.304C110.495 32.8267 111.103 33.088 111.86 33.088ZM121.718 34.144C120.929 34.144 120.241 33.9733 119.654 33.632C119.078 33.2907 118.63 32.8053 118.31 32.176C118.001 31.5467 117.846 30.8 117.846 29.936C117.846 29.0613 118.006 28.32 118.326 27.712C118.646 27.0933 119.094 26.624 119.67 26.304C120.257 25.984 120.939 25.824 121.718 25.824C122.23 25.824 122.726 25.9147 123.206 26.096C123.697 26.2773 124.102 26.5333 124.422 26.864L123.958 27.792C123.638 27.4827 123.286 27.2533 122.902 27.104C122.529 26.9547 122.161 26.88 121.798 26.88C120.966 26.88 120.321 27.1413 119.862 27.664C119.403 28.1867 119.174 28.9493 119.174 29.952C119.174 30.944 119.403 31.712 119.862 32.256C120.321 32.8 120.966 33.072 121.798 33.072C122.15 33.072 122.513 33.0027 122.886 32.864C123.27 32.7253 123.627 32.496 123.958 32.176L124.422 33.088C124.091 33.4293 123.681 33.6907 123.19 33.872C122.699 34.0533 122.209 34.144 121.718 34.144ZM129.312 34.144C128.523 34.144 127.92 33.92 127.504 33.472C127.088 33.0133 126.88 32.3253 126.88 31.408V26.976H125.312V25.968H126.88V23.776L128.176 23.408V25.968H130.48V26.976H128.176V31.264C128.176 31.904 128.283 32.3627 128.496 32.64C128.72 32.9067 129.051 33.04 129.488 33.04C129.691 33.04 129.872 33.024 130.032 32.992C130.192 32.9493 130.336 32.9013 130.464 32.848V33.936C130.315 34 130.133 34.048 129.92 34.08C129.717 34.1227 129.515 34.144 129.312 34.144ZM134.93 34.144C134.29 34.144 133.692 34.0587 133.138 33.888C132.583 33.7067 132.124 33.456 131.762 33.136L132.21 32.224C132.604 32.5333 133.031 32.7627 133.49 32.912C133.959 33.0613 134.444 33.136 134.946 33.136C135.586 33.136 136.066 33.024 136.386 32.8C136.716 32.5653 136.882 32.2453 136.882 31.84C136.882 31.5307 136.775 31.2853 136.562 31.104C136.359 30.912 136.023 30.7627 135.554 30.656L134.066 30.352C133.383 30.2027 132.871 29.952 132.53 29.6C132.188 29.2373 132.018 28.7787 132.018 28.224C132.018 27.7547 132.14 27.344 132.386 26.992C132.631 26.6293 132.988 26.3467 133.458 26.144C133.927 25.9307 134.476 25.824 135.106 25.824C135.692 25.824 136.231 25.9147 136.722 26.096C137.223 26.2667 137.639 26.5173 137.97 26.848L137.506 27.744C137.186 27.4347 136.818 27.2053 136.402 27.056C135.996 26.896 135.575 26.816 135.138 26.816C134.508 26.816 134.034 26.944 133.714 27.2C133.404 27.4453 133.25 27.7707 133.25 28.176C133.25 28.4853 133.346 28.7413 133.538 28.944C133.74 29.136 134.05 29.28 134.466 29.376L135.954 29.68C136.679 29.84 137.218 30.0907 137.57 30.432C137.932 30.7627 138.114 31.2107 138.114 31.776C138.114 32.256 137.98 32.6773 137.714 33.04C137.447 33.392 137.074 33.664 136.594 33.856C136.124 34.048 135.57 34.144 134.93 34.144Z" fill="#A4A6B3"/>
<path opacity="0.4" d="M34.4 27.2C35.2825 27.2 36 26.4825 36 25.6C36 24.7175 35.2825 24 34.4 24C33.5175 24 32.8 24.7175 32.8 25.6C32.8 26.4825 33.5175 27.2 34.4 27.2ZM45.6 27.2C46.4825 27.2 47.2 26.4825 47.2 25.6C47.2 24.7175 46.4825 24 45.6 24C44.7175 24 44 24.7175 44 25.6C44 26.4825 44.7175 27.2 45.6 27.2ZM46.4 28H44.8C44.36 28 43.9625 28.1775 43.6725 28.465C44.68 29.0175 45.395 30.015 45.55 31.2H47.2C47.6425 31.2 48 30.8425 48 30.4V29.6C48 28.7175 47.2825 28 46.4 28ZM40 28C41.5475 28 42.8 26.7475 42.8 25.2C42.8 23.6525 41.5475 22.4 40 22.4C38.4525 22.4 37.2 23.6525 37.2 25.2C37.2 26.7475 38.4525 28 40 28ZM41.92 28.8H41.7125C41.1925 29.05 40.615 29.2 40 29.2C39.385 29.2 38.81 29.05 38.2875 28.8H38.08C36.49 28.8 35.2 30.09 35.2 31.68V32.4C35.2 33.0625 35.7375 33.6 36.4 33.6H43.6C44.2625 33.6 44.8 33.0625 44.8 32.4V31.68C44.8 30.09 43.51 28.8 41.92 28.8ZM36.3275 28.465C36.0375 28.1775 35.64 28 35.2 28H33.6C32.7175 28 32 28.7175 32 29.6V30.4C32 30.8425 32.3575 31.2 32.8 31.2H34.4475C34.605 30.015 35.32 29.0175 36.3275 28.465Z" fill="#9FA2B4"/>
</svg>
