<svg width="255" height="56" viewBox="0 0 255 56" fill="none" xmlns="http://www.w3.org/2000/svg">
<path d="M72.288 34L77.264 22.72H78.416L83.472 34H82.096L80.688 30.784L81.28 31.12H74.384L75.024 30.784L73.648 34H72.288ZM77.824 24.24L75.232 30.32L74.848 30.032H80.8L80.512 30.32L77.856 24.24H77.824ZM88.6875 37.568C87.9942 37.568 87.3542 37.4827 86.7675 37.312C86.1808 37.1413 85.6528 36.88 85.1835 36.528L85.5675 35.552C85.8982 35.7867 86.2235 35.9733 86.5435 36.112C86.8635 36.2507 87.1942 36.352 87.5355 36.416C87.8768 36.4907 88.2395 36.528 88.6235 36.528C89.4128 36.528 90.0102 36.32 90.4155 35.904C90.8208 35.488 91.0235 34.896 91.0235 34.128V31.776H91.1835C91.0128 32.4053 90.6608 32.9067 90.1275 33.28C89.5942 33.6427 88.9702 33.824 88.2555 33.824C87.5195 33.824 86.8795 33.664 86.3355 33.344C85.8022 33.0133 85.3862 32.5493 85.0875 31.952C84.7995 31.344 84.6555 30.6293 84.6555 29.808C84.6555 28.9973 84.7995 28.2933 85.0875 27.696C85.3862 27.0987 85.8022 26.64 86.3355 26.32C86.8795 25.9893 87.5195 25.824 88.2555 25.824C88.9808 25.824 89.6048 26.0053 90.1275 26.368C90.6608 26.7307 91.0128 27.232 91.1835 27.872L91.0235 27.712L91.1675 25.968H92.4315C92.3888 26.2773 92.3568 26.592 92.3355 26.912C92.3142 27.2213 92.3035 27.5253 92.3035 27.824V33.952C92.3035 35.1467 91.9942 36.048 91.3755 36.656C90.7675 37.264 89.8715 37.568 88.6875 37.568ZM88.4955 32.768C89.2742 32.768 89.8875 32.512 90.3355 32C90.7835 31.4773 91.0075 30.7467 91.0075 29.808C91.0075 28.8693 90.7835 28.144 90.3355 27.632C89.8875 27.12 89.2742 26.864 88.4955 26.864C87.7275 26.864 87.1142 27.12 86.6555 27.632C86.1968 28.144 85.9675 28.8693 85.9675 29.808C85.9675 30.7467 86.1968 31.4773 86.6555 32C87.1142 32.512 87.7275 32.768 88.4955 32.768ZM98.5601 34.144C97.3015 34.144 96.3095 33.7813 95.5841 33.056C94.8588 32.32 94.4961 31.3013 94.4961 30C94.4961 29.1573 94.6561 28.4267 94.9761 27.808C95.2961 27.1787 95.7441 26.6933 96.3201 26.352C96.8961 26 97.5575 25.824 98.3041 25.824C99.0401 25.824 99.6588 25.9787 100.16 26.288C100.661 26.5973 101.045 27.04 101.312 27.616C101.579 28.1813 101.712 28.8533 101.712 29.632V30.112H95.4881V29.296H100.864L100.592 29.504C100.592 28.6507 100.4 27.984 100.016 27.504C99.6321 27.024 99.0615 26.784 98.3041 26.784C97.5041 26.784 96.8801 27.0667 96.4321 27.632C95.9841 28.1867 95.7601 28.9387 95.7601 29.888V30.032C95.7601 31.0347 96.0055 31.7973 96.4961 32.32C96.9975 32.832 97.6961 33.088 98.5921 33.088C99.0721 33.088 99.5201 33.0187 99.9361 32.88C100.363 32.7307 100.768 32.4907 101.152 32.16L101.6 33.072C101.248 33.4133 100.8 33.68 100.256 33.872C99.7228 34.0533 99.1575 34.144 98.5601 34.144ZM103.895 34V27.824C103.895 27.5253 103.879 27.2213 103.847 26.912C103.826 26.592 103.799 26.2773 103.767 25.968H105.015L105.175 27.728H104.983C105.218 27.1093 105.591 26.64 106.103 26.32C106.626 25.9893 107.229 25.824 107.911 25.824C108.861 25.824 109.575 26.08 110.055 26.592C110.546 27.0933 110.791 27.888 110.791 28.976V34H109.495V29.056C109.495 28.2987 109.341 27.7493 109.031 27.408C108.733 27.056 108.263 26.88 107.623 26.88C106.877 26.88 106.285 27.1093 105.847 27.568C105.41 28.0267 105.191 28.64 105.191 29.408V34H103.895ZM116.318 34.144C115.529 34.144 114.926 33.92 114.51 33.472C114.094 33.0133 113.886 32.3253 113.886 31.408V26.976H112.318V25.968H113.886V23.776L115.182 23.408V25.968H117.486V26.976H115.182V31.264C115.182 31.904 115.289 32.3627 115.502 32.64C115.726 32.9067 116.057 33.04 116.494 33.04C116.697 33.04 116.878 33.024 117.038 32.992C117.198 32.9493 117.342 32.9013 117.47 32.848V33.936C117.321 34 117.14 34.048 116.926 34.08C116.724 34.1227 116.521 34.144 116.318 34.144ZM121.936 34.144C121.296 34.144 120.699 34.0587 120.144 33.888C119.589 33.7067 119.131 33.456 118.768 33.136L119.216 32.224C119.611 32.5333 120.037 32.7627 120.496 32.912C120.965 33.0613 121.451 33.136 121.952 33.136C122.592 33.136 123.072 33.024 123.392 32.8C123.723 32.5653 123.888 32.2453 123.888 31.84C123.888 31.5307 123.781 31.2853 123.568 31.104C123.365 30.912 123.029 30.7627 122.56 30.656L121.072 30.352C120.389 30.2027 119.877 29.952 119.536 29.6C119.195 29.2373 119.024 28.7787 119.024 28.224C119.024 27.7547 119.147 27.344 119.392 26.992C119.637 26.6293 119.995 26.3467 120.464 26.144C120.933 25.9307 121.483 25.824 122.112 25.824C122.699 25.824 123.237 25.9147 123.728 26.096C124.229 26.2667 124.645 26.5173 124.976 26.848L124.512 27.744C124.192 27.4347 123.824 27.2053 123.408 27.056C123.003 26.896 122.581 26.816 122.144 26.816C121.515 26.816 121.04 26.944 120.72 27.2C120.411 27.4453 120.256 27.7707 120.256 28.176C120.256 28.4853 120.352 28.7413 120.544 28.944C120.747 29.136 121.056 29.28 121.472 29.376L122.96 29.68C123.685 29.84 124.224 30.0907 124.576 30.432C124.939 30.7627 125.12 31.2107 125.12 31.776C125.12 32.256 124.987 32.6773 124.72 33.04C124.453 33.392 124.08 33.664 123.6 33.856C123.131 34.048 122.576 34.144 121.936 34.144Z" fill="#A4A6B3"/>
<path opacity="0.4" d="M40 28C42.2094 28 44 26.2094 44 24C44 21.7906 42.2094 20 40 20C37.7906 20 36 21.7906 36 24C36 26.2094 37.7906 28 40 28ZM42.9937 29.0188L41.5 35L40.5 30.75L41.5 29H38.5L39.5 30.75L38.5 35L37.0062 29.0188C34.7781 29.125 33 30.9469 33 33.2V34.5C33 35.3281 33.6719 36 34.5 36H45.5C46.3281 36 47 35.3281 47 34.5V33.2C47 30.9469 45.2219 29.125 42.9937 29.0188Z" fill="#9FA2B4"/>
</svg>
