<svg width="255" height="56" viewBox="0 0 255 56" fill="none" xmlns="http://www.w3.org/2000/svg">
<path d="M77.088 34.144C76.1813 34.144 75.3707 34.0267 74.656 33.792C73.9413 33.5573 73.3173 33.2213 72.784 32.784L73.264 31.728C73.6373 32.0053 74.0107 32.24 74.384 32.432C74.768 32.6133 75.1787 32.752 75.616 32.848C76.0533 32.9333 76.544 32.976 77.088 32.976C78.0373 32.976 78.7413 32.8 79.2 32.448C79.6587 32.096 79.888 31.6267 79.888 31.04C79.888 30.5387 79.728 30.1547 79.408 29.888C79.088 29.6213 78.528 29.408 77.728 29.248L76.048 28.912C75.0133 28.6987 74.24 28.352 73.728 27.872C73.2267 27.392 72.976 26.7413 72.976 25.92C72.976 25.248 73.1467 24.6613 73.488 24.16C73.84 23.6587 74.3307 23.2693 74.96 22.992C75.5893 22.7147 76.32 22.576 77.152 22.576C77.952 22.576 78.6827 22.6987 79.344 22.944C80.0053 23.1787 80.5707 23.5253 81.04 23.984L80.576 25.008C80.0747 24.56 79.5467 24.24 78.992 24.048C78.448 23.8453 77.8293 23.744 77.136 23.744C76.2613 23.744 75.568 23.936 75.056 24.32C74.5547 24.6933 74.304 25.2053 74.304 25.856C74.304 26.3787 74.464 26.7893 74.784 27.088C75.104 27.376 75.632 27.5947 76.368 27.744L78.064 28.08C79.152 28.304 79.952 28.64 80.464 29.088C80.976 29.536 81.232 30.1653 81.232 30.976C81.232 31.5947 81.0613 32.144 80.72 32.624C80.3893 33.104 79.9147 33.4773 79.296 33.744C78.6773 34.0107 77.9413 34.144 77.088 34.144ZM87.0008 34.144C85.7421 34.144 84.7501 33.7813 84.0247 33.056C83.2994 32.32 82.9367 31.3013 82.9367 30C82.9367 29.1573 83.0967 28.4267 83.4167 27.808C83.7367 27.1787 84.1847 26.6933 84.7607 26.352C85.3367 26 85.9981 25.824 86.7448 25.824C87.4808 25.824 88.0994 25.9787 88.6007 26.288C89.1021 26.5973 89.4861 27.04 89.7528 27.616C90.0194 28.1813 90.1528 28.8533 90.1528 29.632V30.112H83.9287V29.296H89.3047L89.0328 29.504C89.0328 28.6507 88.8408 27.984 88.4567 27.504C88.0728 27.024 87.5021 26.784 86.7448 26.784C85.9447 26.784 85.3207 27.0667 84.8728 27.632C84.4247 28.1867 84.2007 28.9387 84.2007 29.888V30.032C84.2007 31.0347 84.4461 31.7973 84.9367 32.32C85.4381 32.832 86.1368 33.088 87.0328 33.088C87.5127 33.088 87.9607 33.0187 88.3767 32.88C88.8034 32.7307 89.2088 32.4907 89.5928 32.16L90.0408 33.072C89.6888 33.4133 89.2408 33.68 88.6968 33.872C88.1634 34.0533 87.5981 34.144 87.0008 34.144ZM95.1839 34.144C94.3945 34.144 93.7919 33.92 93.3759 33.472C92.9599 33.0133 92.7519 32.3253 92.7519 31.408V26.976H91.1839V25.968H92.7519V23.776L94.0479 23.408V25.968H96.3519V26.976H94.0479V31.264C94.0479 31.904 94.1545 32.3627 94.3679 32.64C94.5919 32.9067 94.9225 33.04 95.3599 33.04C95.5625 33.04 95.7439 33.024 95.9039 32.992C96.0639 32.9493 96.2079 32.9013 96.3359 32.848V33.936C96.1865 34 96.0052 34.048 95.7919 34.08C95.5892 34.1227 95.3865 34.144 95.1839 34.144ZM100.775 34.144C99.9852 34.144 99.3825 33.92 98.9665 33.472C98.5505 33.0133 98.3425 32.3253 98.3425 31.408V26.976H96.7745V25.968H98.3425V23.776L99.6385 23.408V25.968H101.943V26.976H99.6385V31.264C99.6385 31.904 99.7452 32.3627 99.9585 32.64C100.183 32.9067 100.513 33.04 100.951 33.04C101.153 33.04 101.335 33.024 101.495 32.992C101.655 32.9493 101.799 32.9013 101.927 32.848V33.936C101.777 34 101.596 34.048 101.383 34.08C101.18 34.1227 100.977 34.144 100.775 34.144ZM103.72 34V25.968H105.016V34H103.72ZM103.56 24.144V22.688H105.16V24.144H103.56ZM107.733 34V27.824C107.733 27.5253 107.717 27.2213 107.685 26.912C107.663 26.592 107.637 26.2773 107.605 25.968H108.853L109.013 27.728H108.821C109.055 27.1093 109.429 26.64 109.941 26.32C110.463 25.9893 111.066 25.824 111.749 25.824C112.698 25.824 113.413 26.08 113.893 26.592C114.383 27.0933 114.629 27.888 114.629 28.976V34H113.333V29.056C113.333 28.2987 113.178 27.7493 112.869 27.408C112.57 27.056 112.101 26.88 111.461 26.88C110.714 26.88 110.122 27.1093 109.685 27.568C109.247 28.0267 109.029 28.64 109.029 29.408V34H107.733ZM120.844 37.568C120.15 37.568 119.51 37.4827 118.924 37.312C118.337 37.1413 117.809 36.88 117.34 36.528L117.724 35.552C118.054 35.7867 118.38 35.9733 118.7 36.112C119.02 36.2507 119.35 36.352 119.692 36.416C120.033 36.4907 120.396 36.528 120.78 36.528C121.569 36.528 122.166 36.32 122.572 35.904C122.977 35.488 123.18 34.896 123.18 34.128V31.776H123.34C123.169 32.4053 122.817 32.9067 122.284 33.28C121.75 33.6427 121.126 33.824 120.412 33.824C119.676 33.824 119.036 33.664 118.492 33.344C117.958 33.0133 117.542 32.5493 117.244 31.952C116.956 31.344 116.812 30.6293 116.812 29.808C116.812 28.9973 116.956 28.2933 117.244 27.696C117.542 27.0987 117.958 26.64 118.492 26.32C119.036 25.9893 119.676 25.824 120.412 25.824C121.137 25.824 121.761 26.0053 122.284 26.368C122.817 26.7307 123.169 27.232 123.34 27.872L123.18 27.712L123.324 25.968H124.588C124.545 26.2773 124.513 26.592 124.492 26.912C124.47 27.2213 124.46 27.5253 124.46 27.824V33.952C124.46 35.1467 124.15 36.048 123.532 36.656C122.924 37.264 122.028 37.568 120.844 37.568ZM120.652 32.768C121.43 32.768 122.044 32.512 122.492 32C122.94 31.4773 123.164 30.7467 123.164 29.808C123.164 28.8693 122.94 28.144 122.492 27.632C122.044 27.12 121.43 26.864 120.652 26.864C119.884 26.864 119.27 27.12 118.812 27.632C118.353 28.144 118.124 28.8693 118.124 29.808C118.124 30.7467 118.353 31.4773 118.812 32C119.27 32.512 119.884 32.768 120.652 32.768ZM129.82 34.144C129.18 34.144 128.583 34.0587 128.028 33.888C127.474 33.7067 127.015 33.456 126.652 33.136L127.1 32.224C127.495 32.5333 127.922 32.7627 128.38 32.912C128.85 33.0613 129.335 33.136 129.836 33.136C130.476 33.136 130.956 33.024 131.276 32.8C131.607 32.5653 131.772 32.2453 131.772 31.84C131.772 31.5307 131.666 31.2853 131.452 31.104C131.25 30.912 130.914 30.7627 130.444 30.656L128.956 30.352C128.274 30.2027 127.762 29.952 127.42 29.6C127.079 29.2373 126.908 28.7787 126.908 28.224C126.908 27.7547 127.031 27.344 127.276 26.992C127.522 26.6293 127.879 26.3467 128.348 26.144C128.818 25.9307 129.367 25.824 129.996 25.824C130.583 25.824 131.122 25.9147 131.612 26.096C132.114 26.2667 132.53 26.5173 132.86 26.848L132.396 27.744C132.076 27.4347 131.708 27.2053 131.292 27.056C130.887 26.896 130.466 26.816 130.028 26.816C129.399 26.816 128.924 26.944 128.604 27.2C128.295 27.4453 128.14 27.7707 128.14 28.176C128.14 28.4853 128.236 28.7413 128.428 28.944C128.631 29.136 128.94 29.28 129.356 29.376L130.844 29.68C131.57 29.84 132.108 30.0907 132.46 30.432C132.823 30.7627 133.004 31.2107 133.004 31.776C133.004 32.256 132.871 32.6773 132.604 33.04C132.338 33.392 131.964 33.664 131.484 33.856C131.015 34.048 130.46 34.144 129.82 34.144Z" fill="#A4A6B3"/>
<path opacity="0.4" d="M47.2313 29.8656L45.9 29.0968C46.0344 28.3718 46.0344 27.6281 45.9 26.9031L47.2313 26.1343C47.3844 26.0468 47.4531 25.8656 47.4031 25.6968C47.0563 24.5843 46.4656 23.5781 45.6938 22.7406C45.575 22.6125 45.3813 22.5812 45.2313 22.6687L43.9 23.4375C43.3406 22.9562 42.6969 22.5843 42 22.3406V20.8062C42 20.6312 41.8781 20.4781 41.7063 20.4406C40.5594 20.1843 39.3844 20.1968 38.2938 20.4406C38.1219 20.4781 38 20.6312 38 20.8062V22.3437C37.3063 22.5906 36.6625 22.9625 36.1 23.4406L34.7719 22.6718C34.6188 22.5843 34.4281 22.6125 34.3094 22.7437C33.5375 23.5781 32.9469 24.5843 32.6 25.7C32.5469 25.8687 32.6188 26.05 32.7719 26.1375L34.1031 26.9062C33.9688 27.6312 33.9688 28.375 34.1031 29.1L32.7719 29.8687C32.6188 29.9562 32.55 30.1375 32.6 30.3062C32.9469 31.4187 33.5375 32.425 34.3094 33.2625C34.4281 33.3906 34.6219 33.4218 34.7719 33.3343L36.1031 32.5656C36.6625 33.0468 37.3063 33.4187 38.0031 33.6625V35.2C38.0031 35.375 38.125 35.5281 38.2969 35.5656C39.4438 35.8218 40.6188 35.8093 41.7094 35.5656C41.8813 35.5281 42.0031 35.375 42.0031 35.2V33.6625C42.6969 33.4156 43.3406 33.0437 43.9031 32.5656L45.2344 33.3343C45.3875 33.4218 45.5781 33.3937 45.6969 33.2625C46.4688 32.4281 47.0594 31.4218 47.4063 30.3062C47.4531 30.1343 47.3844 29.9531 47.2313 29.8656ZM40 30.5C38.6219 30.5 37.5 29.3781 37.5 28C37.5 26.6218 38.6219 25.5 40 25.5C41.3781 25.5 42.5 26.6218 42.5 28C42.5 29.3781 41.3781 30.5 40 30.5Z" fill="#9FA2B4"/>
</svg>
