<svg width="255" height="56" viewBox="0 0 255 56" fill="none" xmlns="http://www.w3.org/2000/svg">
<path d="M77.088 34.144C76.1813 34.144 75.3707 34.0267 74.656 33.792C73.9413 33.5573 73.3173 33.2213 72.784 32.784L73.264 31.728C73.6373 32.0053 74.0107 32.24 74.384 32.432C74.768 32.6133 75.1787 32.752 75.616 32.848C76.0533 32.9333 76.544 32.976 77.088 32.976C78.0373 32.976 78.7413 32.8 79.2 32.448C79.6587 32.096 79.888 31.6267 79.888 31.04C79.888 30.5387 79.728 30.1547 79.408 29.888C79.088 29.6213 78.528 29.408 77.728 29.248L76.048 28.912C75.0133 28.6987 74.24 28.352 73.728 27.872C73.2267 27.392 72.976 26.7413 72.976 25.92C72.976 25.248 73.1467 24.6613 73.488 24.16C73.84 23.6587 74.3307 23.2693 74.96 22.992C75.5893 22.7147 76.32 22.576 77.152 22.576C77.952 22.576 78.6827 22.6987 79.344 22.944C80.0053 23.1787 80.5707 23.5253 81.04 23.984L80.576 25.008C80.0747 24.56 79.5467 24.24 78.992 24.048C78.448 23.8453 77.8293 23.744 77.136 23.744C76.2613 23.744 75.568 23.936 75.056 24.32C74.5547 24.6933 74.304 25.2053 74.304 25.856C74.304 26.3787 74.464 26.7893 74.784 27.088C75.104 27.376 75.632 27.5947 76.368 27.744L78.064 28.08C79.152 28.304 79.952 28.64 80.464 29.088C80.976 29.536 81.232 30.1653 81.232 30.976C81.232 31.5947 81.0613 32.144 80.72 32.624C80.3893 33.104 79.9147 33.4773 79.296 33.744C78.6773 34.0107 77.9413 34.144 77.088 34.144ZM86.2648 34.144C85.3154 34.144 84.5954 33.8827 84.1047 33.36C83.6247 32.8373 83.3847 32.0373 83.3847 30.96V25.968H84.6807V30.928C84.6807 31.664 84.8301 32.208 85.1287 32.56C85.4274 32.9013 85.8914 33.072 86.5208 33.072C87.2248 33.072 87.7901 32.8427 88.2168 32.384C88.6434 31.9253 88.8568 31.312 88.8568 30.544V25.968H90.1528V34H88.8888V32.192H89.0968C88.8728 32.8107 88.5101 33.2907 88.0087 33.632C87.5181 33.9733 86.9367 34.144 86.2648 34.144ZM96.8991 34.144C96.1738 34.144 95.5498 33.9627 95.0271 33.6C94.5045 33.2267 94.1525 32.72 93.9711 32.08H94.1471V34H92.8671V22.224H94.1631V27.84H93.9711C94.1525 27.2213 94.5045 26.7307 95.0271 26.368C95.5498 26.0053 96.1738 25.824 96.8991 25.824C97.6245 25.824 98.2485 25.9947 98.7711 26.336C99.3045 26.6667 99.7151 27.1413 100.003 27.76C100.302 28.3787 100.451 29.12 100.451 29.984C100.451 30.848 100.302 31.5893 100.003 32.208C99.7045 32.8267 99.2885 33.3067 98.7551 33.648C98.2325 33.9787 97.6138 34.144 96.8991 34.144ZM96.6271 33.088C97.3845 33.088 97.9925 32.8267 98.4511 32.304C98.9098 31.7813 99.1391 31.008 99.1391 29.984C99.1391 28.96 98.9098 28.1867 98.4511 27.664C97.9925 27.1307 97.3845 26.864 96.6271 26.864C95.8698 26.864 95.2618 27.1307 94.8031 27.664C94.3551 28.1867 94.1311 28.96 94.1311 29.984C94.1311 30.9973 94.3551 31.7707 94.8031 32.304C95.2618 32.8267 95.8698 33.088 96.6271 33.088ZM105.333 34.144C104.693 34.144 104.096 34.0587 103.541 33.888C102.986 33.7067 102.528 33.456 102.165 33.136L102.613 32.224C103.008 32.5333 103.434 32.7627 103.893 32.912C104.362 33.0613 104.848 33.136 105.349 33.136C105.989 33.136 106.469 33.024 106.789 32.8C107.12 32.5653 107.285 32.2453 107.285 31.84C107.285 31.5307 107.178 31.2853 106.965 31.104C106.762 30.912 106.426 30.7627 105.957 30.656L104.469 30.352C103.786 30.2027 103.274 29.952 102.933 29.6C102.592 29.2373 102.421 28.7787 102.421 28.224C102.421 27.7547 102.544 27.344 102.789 26.992C103.034 26.6293 103.392 26.3467 103.861 26.144C104.33 25.9307 104.88 25.824 105.509 25.824C106.096 25.824 106.634 25.9147 107.125 26.096C107.626 26.2667 108.042 26.5173 108.373 26.848L107.909 27.744C107.589 27.4347 107.221 27.2053 106.805 27.056C106.4 26.896 105.978 26.816 105.541 26.816C104.912 26.816 104.437 26.944 104.117 27.2C103.808 27.4453 103.653 27.7707 103.653 28.176C103.653 28.4853 103.749 28.7413 103.941 28.944C104.144 29.136 104.453 29.28 104.869 29.376L106.357 29.68C107.082 29.84 107.621 30.0907 107.973 30.432C108.336 30.7627 108.517 31.2107 108.517 31.776C108.517 32.256 108.384 32.6773 108.117 33.04C107.85 33.392 107.477 33.664 106.997 33.856C106.528 34.048 105.973 34.144 105.333 34.144ZM114.174 34.144C113.385 34.144 112.697 33.9733 112.11 33.632C111.534 33.2907 111.086 32.8053 110.766 32.176C110.457 31.5467 110.302 30.8 110.302 29.936C110.302 29.0613 110.462 28.32 110.782 27.712C111.102 27.0933 111.55 26.624 112.126 26.304C112.713 25.984 113.396 25.824 114.174 25.824C114.686 25.824 115.182 25.9147 115.662 26.096C116.153 26.2773 116.558 26.5333 116.878 26.864L116.414 27.792C116.094 27.4827 115.742 27.2533 115.358 27.104C114.985 26.9547 114.617 26.88 114.254 26.88C113.422 26.88 112.777 27.1413 112.318 27.664C111.86 28.1867 111.63 28.9493 111.63 29.952C111.63 30.944 111.86 31.712 112.318 32.256C112.777 32.8 113.422 33.072 114.254 33.072C114.606 33.072 114.969 33.0027 115.342 32.864C115.726 32.7253 116.084 32.496 116.414 32.176L116.878 33.088C116.548 33.4293 116.137 33.6907 115.646 33.872C115.156 34.0533 114.665 34.144 114.174 34.144ZM118.888 34V27.904C118.888 27.584 118.878 27.2587 118.856 26.928C118.846 26.5973 118.824 26.2773 118.792 25.968H120.04L120.2 27.92L119.976 27.936C120.083 27.456 120.27 27.0613 120.536 26.752C120.803 26.4427 121.118 26.2133 121.48 26.064C121.843 25.904 122.222 25.824 122.616 25.824C122.776 25.824 122.915 25.8293 123.032 25.84C123.16 25.8507 123.278 25.8773 123.384 25.92L123.368 27.072C123.208 27.0187 123.059 26.9867 122.92 26.976C122.792 26.9547 122.643 26.944 122.472 26.944C122.003 26.944 121.592 27.056 121.24 27.28C120.899 27.504 120.638 27.792 120.456 28.144C120.286 28.496 120.2 28.8693 120.2 29.264V34H118.888ZM124.933 34V25.968H126.229V34H124.933ZM124.773 24.144V22.688H126.373V24.144H124.773ZM128.945 37.456V27.824C128.945 27.5253 128.929 27.2213 128.897 26.912C128.876 26.592 128.849 26.2773 128.817 25.968H130.065L130.241 27.872H130.049C130.22 27.2427 130.567 26.7467 131.089 26.384C131.612 26.0107 132.236 25.824 132.961 25.824C133.687 25.824 134.311 25.9893 134.833 26.32C135.367 26.6507 135.783 27.1253 136.081 27.744C136.38 28.3627 136.529 29.1093 136.529 29.984C136.529 30.848 136.38 31.5893 136.081 32.208C135.793 32.8267 135.383 33.3067 134.849 33.648C134.316 33.9787 133.687 34.144 132.961 34.144C132.247 34.144 131.628 33.9627 131.105 33.6C130.583 33.2373 130.236 32.7413 130.065 32.112H130.241V37.456H128.945ZM132.705 33.088C133.473 33.088 134.081 32.8267 134.529 32.304C134.988 31.7707 135.217 30.9973 135.217 29.984C135.217 28.96 134.988 28.1867 134.529 27.664C134.081 27.1307 133.473 26.864 132.705 26.864C131.948 26.864 131.34 27.1307 130.881 27.664C130.433 28.1867 130.209 28.96 130.209 29.984C130.209 30.9973 130.433 31.7707 130.881 32.304C131.34 32.8267 131.948 33.088 132.705 33.088ZM141.509 34.144C140.72 34.144 140.117 33.92 139.701 33.472C139.285 33.0133 139.077 32.3253 139.077 31.408V26.976H137.509V25.968H139.077V23.776L140.373 23.408V25.968H142.677V26.976H140.373V31.264C140.373 31.904 140.48 32.3627 140.693 32.64C140.917 32.9067 141.248 33.04 141.685 33.04C141.888 33.04 142.069 33.024 142.229 32.992C142.389 32.9493 142.533 32.9013 142.661 32.848V33.936C142.512 34 142.33 34.048 142.117 34.08C141.914 34.1227 141.712 34.144 141.509 34.144ZM144.455 34V25.968H145.751V34H144.455ZM144.295 24.144V22.688H145.895V24.144H144.295ZM151.763 34.144C150.995 34.144 150.323 33.9787 149.747 33.648C149.182 33.3067 148.744 32.8267 148.435 32.208C148.126 31.5787 147.971 30.8373 147.971 29.984C147.971 29.12 148.126 28.3787 148.435 27.76C148.744 27.1413 149.182 26.6667 149.747 26.336C150.323 25.9947 150.995 25.824 151.763 25.824C152.542 25.824 153.214 25.9947 153.779 26.336C154.355 26.6667 154.798 27.1413 155.107 27.76C155.427 28.3787 155.587 29.12 155.587 29.984C155.587 30.8373 155.427 31.5787 155.107 32.208C154.798 32.8267 154.355 33.3067 153.779 33.648C153.214 33.9787 152.542 34.144 151.763 34.144ZM151.763 33.088C152.531 33.088 153.139 32.8267 153.587 32.304C154.035 31.7707 154.259 30.9973 154.259 29.984C154.259 28.96 154.03 28.1867 153.571 27.664C153.123 27.1307 152.52 26.864 151.763 26.864C151.006 26.864 150.403 27.1307 149.955 27.664C149.507 28.1867 149.283 28.96 149.283 29.984C149.283 30.9973 149.507 31.7707 149.955 32.304C150.403 32.8267 151.006 33.088 151.763 33.088ZM157.808 34V27.824C157.808 27.5253 157.792 27.2213 157.76 26.912C157.738 26.592 157.712 26.2773 157.68 25.968H158.928L159.088 27.728H158.896C159.13 27.1093 159.504 26.64 160.016 26.32C160.538 25.9893 161.141 25.824 161.824 25.824C162.773 25.824 163.488 26.08 163.968 26.592C164.458 27.0933 164.704 27.888 164.704 28.976V34H163.408V29.056C163.408 28.2987 163.253 27.7493 162.944 27.408C162.645 27.056 162.176 26.88 161.536 26.88C160.789 26.88 160.197 27.1093 159.76 27.568C159.322 28.0267 159.104 28.64 159.104 29.408V34H157.808Z" fill="#A4A6B3"/>
<g clip-path="url(#clip0_597_252)">
<path opacity="0.4" d="M37.035 31.3322C36.7634 31.0606 36.905 31.1372 36.25 30.9619C35.9528 30.8822 35.6916 30.7291 35.4553 30.5456L34.0375 34.0219C33.9003 34.3584 34.1566 34.7241 34.5197 34.7103L36.1663 34.6475L37.2988 35.8438C37.5488 36.1075 37.9875 36.0253 38.1247 35.6888L39.7513 31.7006C39.4125 31.8894 39.0366 32 38.6478 32C38.0384 32 37.4659 31.7628 37.035 31.3322ZM45.9625 34.0219L44.5447 30.5456C44.3084 30.7294 44.0472 30.8822 43.75 30.9619C43.0916 31.1381 43.2359 31.0613 42.965 31.3322C42.5341 31.7628 41.9613 32 41.3519 32C40.9631 32 40.5872 31.8891 40.2484 31.7006L41.875 35.6888C42.0122 36.0253 42.4513 36.1075 42.7009 35.8438L43.8338 34.6475L45.4803 34.7103C45.8434 34.7241 46.0997 34.3581 45.9625 34.0219ZM42.2188 30.625C42.6963 30.1391 42.7509 30.1809 43.4309 29.9956C43.865 29.8772 44.2044 29.5319 44.3206 29.09C44.5544 28.2025 44.4938 28.3097 45.1316 27.6603C45.4494 27.3369 45.5734 26.8653 45.4572 26.4234C45.2238 25.5366 45.2234 25.6603 45.4572 24.7725C45.5734 24.3306 45.4494 23.8591 45.1316 23.5356C44.4938 22.8863 44.5544 22.9931 44.3206 22.1059C44.2044 21.6641 43.865 21.3188 43.4309 21.2003C42.5597 20.9625 42.6647 21.0247 42.0263 20.375C41.7084 20.0516 41.245 19.925 40.8109 20.0434C39.94 20.2809 40.0616 20.2813 39.1891 20.0434C38.755 19.925 38.2916 20.0513 37.9738 20.375C37.3359 21.0244 37.4409 20.9625 36.5694 21.2003C36.1353 21.3188 35.7959 21.6641 35.6797 22.1059C35.4463 22.9931 35.5066 22.8863 34.8688 23.5356C34.5509 23.8591 34.4266 24.3306 34.5431 24.7725C34.7766 25.6588 34.7769 25.535 34.5431 26.4231C34.4269 26.865 34.5509 27.3366 34.8688 27.6603C35.5066 28.3097 35.4459 28.2025 35.6797 29.09C35.7959 29.5319 36.1353 29.8772 36.5694 29.9956C37.2688 30.1863 37.3209 30.1563 37.7813 30.625C38.1947 31.0459 38.8388 31.1213 39.3356 30.8069C39.5343 30.6807 39.7648 30.6138 40.0002 30.6138C40.2355 30.6138 40.466 30.6807 40.6647 30.8069C41.1613 31.1213 41.8053 31.0459 42.2188 30.625ZM37.0519 25.4988C37.0519 23.8416 38.3719 22.4981 40 22.4981C41.6281 22.4981 42.9481 23.8416 42.9481 25.4988C42.9481 27.1559 41.6281 28.4994 40 28.4994C38.3719 28.4994 37.0519 27.1559 37.0519 25.4988Z" fill="#9FA2B4"/>
</g>
<defs>
<clipPath id="clip0_597_252">
<rect width="16" height="16" fill="white" transform="translate(32 20)"/>
</clipPath>
</defs>
</svg>
